<svg width="90" height="24" viewBox="0 0 90 24" fill="none" xmlns="http://www.w3.org/2000/svg">
<path d="M8.71191 2.81641C9.8318 2.81641 10.9038 2.99182 11.9277 3.34375C12.9517 3.69575 13.7922 4.17618 14.4482 4.78418L13.2959 7.73633C12.576 7.17638 11.8482 6.76772 11.1123 6.51172C10.3923 6.23972 9.63202 6.10352 8.83203 6.10352C7.23207 6.10352 6.01559 6.57557 5.18359 7.51953C4.35159 8.44753 3.93555 9.78432 3.93555 11.5283C3.9356 13.2719 4.35191 14.6157 5.18359 15.5596C6.01559 16.5036 7.23203 16.9756 8.83203 16.9756C9.63202 16.9756 10.3923 16.8478 11.1123 16.5918C11.8482 16.3198 12.576 15.9037 13.2959 15.3438L14.4482 18.2959C13.7922 18.9039 12.9517 19.3843 11.9277 19.7363C10.9038 20.0883 9.83179 20.2637 8.71191 20.2637C6.88795 20.2637 5.32821 19.9036 4.03223 19.1836C2.7363 18.4636 1.73622 17.4561 1.03223 16.1602C0.344268 14.8482 4.1129e-05 13.3042 0 11.5283C0 9.75232 0.344227 8.21592 1.03223 6.91992C1.73622 5.62401 2.73629 4.61645 4.03223 3.89648C5.32821 3.1765 6.88795 2.81642 8.71191 2.81641ZM21.1562 7.97559C22.4202 7.97562 23.5164 8.22376 24.4443 8.71973C25.3883 9.21572 26.116 9.92849 26.6279 10.8564C27.1558 11.7683 27.4199 12.848 27.4199 14.0957C27.4199 15.3596 27.1559 16.4558 26.6279 17.3838C26.116 18.3116 25.3881 19.0235 24.4443 19.5195C23.5164 20.0155 22.4202 20.2636 21.1562 20.2637C19.8923 20.2637 18.7878 20.0155 17.8438 19.5195C16.9159 19.0235 16.1955 18.3117 15.6836 17.3838C15.1717 16.4559 14.916 15.3595 14.916 14.0957C14.9161 12.8319 15.1717 11.7439 15.6836 10.832C16.1956 9.92006 16.9158 9.21572 17.8438 8.71973C18.7878 8.22373 19.8923 7.97559 21.1562 7.97559ZM48.3145 7.97559C48.8905 7.97559 49.4511 8.02412 49.9951 8.12012C50.539 8.21612 51.0513 8.35978 51.5312 8.55176C52.0271 8.74374 52.4666 9.00037 52.8506 9.32031L51.9385 11.6484C51.6346 11.4086 51.2751 11.2004 50.8594 11.0244C50.4434 10.8484 50.0189 10.7122 49.5869 10.6162C49.155 10.5042 48.7472 10.4483 48.3633 10.4482C47.6433 10.4482 47.1227 10.5676 46.8027 10.8076C46.4828 11.0316 46.3233 11.3199 46.3232 11.6719C46.3232 11.9439 46.4109 12.1762 46.5869 12.3682C46.7789 12.5441 47.0672 12.6635 47.4512 12.7275L49.9707 13.1836C51.0107 13.3596 51.8027 13.7122 52.3467 14.2402C52.8906 14.7522 53.163 15.4558 53.1631 16.3516C53.1631 17.1676 52.9466 17.8719 52.5146 18.4639C52.0828 19.0397 51.4751 19.4876 50.6914 19.8076C49.9074 20.1116 48.9867 20.2637 47.9307 20.2637C47.2428 20.2637 46.5784 20.2077 45.9385 20.0957C45.2987 19.9837 44.7144 19.8316 44.1865 19.6396C43.6587 19.4477 43.1948 19.2078 42.7949 18.9199L43.6592 16.5684C44.0591 16.8083 44.4912 17.0239 44.9551 17.2158C45.4351 17.3918 45.9314 17.528 46.4434 17.624C46.9552 17.72 47.4592 17.7676 47.9551 17.7676C48.643 17.7676 49.1394 17.664 49.4434 17.4561C49.7632 17.2321 49.9229 16.9437 49.9229 16.5918C49.9228 16.272 49.8191 16.032 49.6113 15.8721C49.4034 15.7121 49.0991 15.6001 48.6992 15.5361L46.1787 15.0801C45.1868 14.9041 44.419 14.5439 43.875 14C43.3471 13.4401 43.0831 12.7281 43.083 11.8643C43.083 11.0643 43.3069 10.3758 43.7549 9.7998C44.2028 9.20794 44.8188 8.76003 45.6025 8.45605C46.4024 8.1361 47.3066 7.97564 48.3145 7.97559ZM74.8174 15.3916C74.8174 15.7916 74.8818 16.1442 75.0098 16.4482C75.1378 16.7361 75.3216 16.9518 75.5615 17.0957C75.8175 17.2397 76.1375 17.3115 76.5215 17.3115C76.6814 17.3115 76.8494 17.3041 77.0254 17.2881C77.2013 17.2721 77.3694 17.2404 77.5293 17.1924L77.4814 20C77.1774 20.08 76.8649 20.1444 76.5449 20.1924C76.2411 20.2403 75.9208 20.2637 75.585 20.2637C74.0652 20.2636 72.953 19.8718 72.249 19.0879C71.5452 18.2879 71.1934 17.1039 71.1934 15.5361V3.08008H74.8174V15.3916ZM84.2998 7.97559C85.4518 7.97559 86.4444 8.22373 87.2764 8.71973C88.1083 9.19972 88.7483 9.88825 89.1963 10.7842C89.6601 11.68 89.8915 12.7439 89.8916 13.9756V14.8877H81.6914C81.7485 15.3173 81.8496 15.6933 81.9961 16.0156C82.2521 16.5276 82.628 16.912 83.124 17.168C83.6359 17.4239 84.2677 17.5517 85.0195 17.5518C85.6595 17.5518 86.3079 17.4557 86.9639 17.2637C87.6199 17.0717 88.2122 16.776 88.7402 16.376L89.7002 18.7998C89.1082 19.2478 88.3796 19.6079 87.5156 19.8799C86.6678 20.1358 85.8121 20.2636 84.9482 20.2637C83.5562 20.2637 82.3557 20.0155 81.3477 19.5195C80.3559 19.0075 79.5879 18.2957 79.0439 17.3838C78.516 16.4559 78.252 15.368 78.252 14.1201C78.252 12.9041 78.5075 11.8397 79.0195 10.9277C79.5315 9.99975 80.2443 9.27957 81.1562 8.76758C82.0841 8.23975 83.132 7.97561 84.2998 7.97559ZM36.8008 7.97559C37.7448 7.97559 38.5209 8.16032 39.1289 8.52832C39.7368 8.88032 40.1931 9.42425 40.4971 10.1602C40.801 10.8801 40.9531 11.8001 40.9531 12.9199V20H37.3291V13.0879C37.3291 12.5439 37.2563 12.1036 37.1123 11.7676C36.9843 11.4159 36.7845 11.1684 36.5127 11.0244C36.2567 10.8644 35.9283 10.7842 35.5283 10.7842C35.0165 10.7842 34.5685 10.8962 34.1846 11.1201C33.8167 11.3281 33.5283 11.6323 33.3203 12.0322C33.1125 12.4321 33.0088 12.8961 33.0088 13.4238V20H29.3848V8.21582H32.9365V9.94434C33.2848 9.39128 33.7397 8.95047 34.3047 8.62402C35.0407 8.19202 35.8728 7.97559 36.8008 7.97559ZM21.1562 10.6885C20.3883 10.6885 19.7642 10.9683 19.2842 11.5283C18.8043 12.0723 18.5645 12.9279 18.5645 14.0957C18.5645 15.2637 18.8042 16.1359 19.2842 16.7119C19.7642 17.2719 20.3883 17.5518 21.1562 17.5518C21.9401 17.5517 22.5718 17.2718 23.0518 16.7119C23.5318 16.1359 23.7725 15.2637 23.7725 14.0957C23.7724 12.9279 23.5317 12.0723 23.0518 11.5283C22.5718 10.9684 21.9401 10.6885 21.1562 10.6885ZM84.4443 10.376C83.8523 10.376 83.3476 10.5122 82.9316 10.7842C82.5158 11.0562 82.1956 11.4481 81.9717 11.96C81.8348 12.2729 81.7407 12.625 81.6875 13.0156H86.8828C86.8377 12.2052 86.625 11.5809 86.2441 11.1436C85.8282 10.6318 85.2281 10.3761 84.4443 10.376Z" fill="#171717"/>
<path d="M54.3008 13.3383C54.3008 9.28549 57.6284 6 61.7329 6C65.8376 6 69.1652 9.28549 69.1652 13.3383C69.1652 17.3911 65.8376 20.6767 61.7329 20.6767C57.6284 20.6767 54.3008 17.3911 54.3008 13.3383Z" fill="white"/>
<path d="M61.7329 6C57.6282 6 54.3008 9.28534 54.3008 13.3383C54.3008 17.3913 57.6282 20.6767 61.7329 20.6767C65.8378 20.6767 69.1652 17.3913 69.1652 13.3383C69.1652 9.28534 65.8378 6 61.7329 6ZM59.7504 6.46049C59.8846 6.81399 60.0164 7.1692 60.1506 7.5227C60.4193 8.22969 60.6644 8.82572 60.8833 9.31668C61.102 9.80764 61.2816 10.1874 61.421 10.4526C61.5602 10.7177 61.6563 10.8793 61.7159 10.9382C61.7756 10.9971 61.8408 11.0416 61.9104 11.071C61.9802 11.1005 62.1062 11.1052 62.2852 11.0855C62.4643 11.0659 62.6168 11.0214 62.7461 10.9527C62.8753 10.8839 62.9855 10.8108 63.0749 10.7322C63.1646 10.6537 63.5693 10.241 64.2854 9.49473C65.0014 8.74848 65.4698 8.23166 65.6986 7.94691C65.9274 7.66216 66.0624 7.51163 66.1023 7.492C66.1223 7.48217 66.1423 7.47334 66.1621 7.46354C66.0229 7.66973 65.8838 7.87635 65.7444 8.08255C65.466 8.49495 65.0889 9.10618 64.6115 9.92118C64.1343 10.7362 63.8134 11.3192 63.6443 11.6727C63.4751 12.0262 63.3865 12.2685 63.3865 12.3961C63.3865 12.5238 63.4157 12.621 63.4753 12.6897C63.535 12.7585 63.7714 12.8433 64.1791 12.9415C64.5869 13.0397 65.108 13.1327 65.7444 13.2211C66.3808 13.3095 66.9785 13.3739 67.5352 13.4131C67.8138 13.4328 68.0924 13.4527 68.3709 13.4723C67.8885 13.5116 67.4054 13.5491 66.923 13.5884C65.9585 13.6669 65.3228 13.7313 65.0145 13.7804C64.7062 13.8295 64.4145 13.8986 64.1362 13.9869C63.8576 14.0753 63.7114 14.1479 63.7015 14.2069C63.6914 14.2658 63.7323 14.3705 63.8218 14.5178C63.9114 14.665 64.2233 15.0202 64.7602 15.5799C65.0288 15.8598 65.2984 16.1362 65.5669 16.4161C65.2487 16.2345 64.9297 16.0524 64.6115 15.8708C63.9751 15.5074 63.5947 15.3213 63.4753 15.3115C63.356 15.3017 63.2692 15.3222 63.2096 15.3711C63.1499 15.4203 63.1001 15.5161 63.0603 15.6537C63.0206 15.7911 63.0046 15.9698 63.0145 16.1957C63.0244 16.4214 63.0565 16.7855 63.106 17.2862C63.1558 17.7872 63.2389 18.3988 63.3583 19.1255C63.418 19.4888 63.4761 19.8529 63.5358 20.2162C63.3966 19.848 63.2601 19.4798 63.1209 19.1115C62.8423 18.3751 62.5769 17.7388 62.3283 17.1987C62.0797 16.6586 61.907 16.3233 61.8076 16.1957C61.7081 16.0681 61.5889 15.9749 61.4498 15.9159C61.3106 15.857 61.122 15.8414 60.8833 15.8708C60.6446 15.9003 60.4326 15.972 60.2536 16.0801C60.0745 16.1882 59.6884 16.5522 59.0919 17.1708C58.4951 17.7894 58.073 18.2478 57.8244 18.5522C57.5757 18.8566 57.4164 19.034 57.3468 19.0831C57.3119 19.1076 57.2787 19.1322 57.2438 19.1567C57.582 18.6068 57.9187 18.0568 58.2568 17.5069C58.9331 16.4071 59.3636 15.6665 59.5525 15.2836C59.7414 14.9007 59.8433 14.6366 59.8534 14.4893C59.8633 14.342 59.8225 14.2133 59.7329 14.1053C59.6435 13.9973 59.5693 13.9287 59.5096 13.8993C59.4499 13.8698 59.2947 13.8254 59.0461 13.7665C58.7975 13.7075 58.3336 13.6302 57.6474 13.532C56.9613 13.4338 56.3603 13.362 55.8531 13.3227C55.5996 13.3031 55.3486 13.2832 55.0951 13.2635C55.5774 13.2243 56.0606 13.1867 56.5428 13.1474C57.5075 13.0689 58.1853 12.9963 58.583 12.9275C58.9809 12.8588 59.2463 12.7939 59.3756 12.7349C59.5048 12.676 59.57 12.6034 59.57 12.515C59.57 12.4267 59.5334 12.3178 59.4638 12.1902C59.3943 12.0625 59.1113 11.723 58.6141 11.1732C58.3655 10.8982 58.1161 10.6231 57.8675 10.3482C57.9967 10.4316 58.1275 10.5159 58.2568 10.5994C58.5155 10.7663 58.8227 10.9414 59.1805 11.128C59.5386 11.3145 59.775 11.4057 59.8844 11.3959C59.9939 11.3861 60.081 11.3375 60.1506 11.2491C60.2202 11.1607 60.2583 10.9787 60.2682 10.7037C60.2782 10.4288 60.2692 10.1098 60.2395 9.74648C60.2095 9.38317 60.1224 8.74399 59.9731 7.83082C59.8986 7.37423 59.825 6.91707 59.7504 6.46049Z" fill="url(#paint0_linear_384_6504)"/>
<defs>
<linearGradient id="paint0_linear_384_6504" x1="54.3097" y1="20.6849" x2="68.9548" y2="5.83644" gradientUnits="userSpaceOnUse">
<stop stop-color="#2D5DE7"/>
<stop offset="1" stop-color="#2D9AE7"/>
</linearGradient>
</defs>
</svg>
